<svg xmlns="http://www.w3.org/2000/svg" width="829.508" height="294.333" xml:space="preserve"><path style="fill:#fff;fill-opacity:1;fill-rule:nonzero;stroke:none" d="M.118.036" transform="matrix(1.25 0 0 -1.25 115.271 672.839)"/><path style="fill:#231f20;fill-opacity:1;fill-rule:nonzero;stroke:none" d="M-3.472 368.79c-2.203 0-22.576-.162-23.316-.493-.745-.323-1.115-.974-1.115-1.957l.07-1.615v-18.013c0-2.771.684-4.508 2.059-5.183 1.37-.693 4.847-1.037 10.43-1.037 17.694 0 29.062 2.89 34.103 8.666.5.554 1.006.842 1.511.878.818.03 1.231-.388 1.231-1.269 0-2.112-1.645-4.63-4.933-7.549-3.961-3.509-8.134-4.667-14.17-4.667l-27.43.507c-7.88 0-13.44-.192-16.68-.578-1.716-.217-2.886-.334-3.514-.334-1.444 0-2.164.354-2.164 1.056 0 .54.585.927 1.758 1.153l2.566.536c3.245.65 4.87 2.928 4.87 6.839l.068 3.179v41.29c0 4.652-.714 7.79-2.132 9.403-1.418 1.615-4.18 2.421-8.277 2.421-1.31 0-1.965.303-1.965.916 0 .902 1.016 1.356 3.038 1.356 1.124 0 2.634-.087 4.525-.249 6.435-.529 14.173-.794 23.22-.794 5.491 0 10.355.067 14.586.192l1.711.337c2.652.06 4.272.126 4.86.191 1.212.126 2.114.193 2.7.193 1.487 0 2.226-.473 2.226-1.407 0-.293-.067-.66-.207-1.11-.14-.455-.32-1.746-.552-3.87l-.28-2.855c-.225-1.877-.452-3.046-.681-3.51-.227-.465-.726-.717-1.5-.748-.867-.036-1.298.453-1.298 1.458v1.267a5.85 5.85 0 0 1-.81 2.967c-.85 1.46-2.582 2.435-5.19 2.922-2.607.487.483.73-6.487.73h-10.586c-2.789 0-4.582-.25-5.394-.758-.811-.506-1.212-1.626-1.212-3.356v-19.7c0-1.502.187-2.41.573-2.719.383-.312 1.541-.468 3.483-.468H-3.34M180.217 384.765v-40.89c0-3.68-.112-5.916-.337-6.71-.222-.799-.852-1.18-1.887-1.15-.675.037-1.193.18-1.549.444l-1.49 1.266-56.946 47.058-.677.535a1.542 1.542 0 0 1-.942.295c-.857 0-1.284-.735-1.284-2.195v-33.102l-.07-2.05.203-3.467c.316-2.145 1.085-3.631 2.309-4.441 1.214-.818 3.61-1.42 7.173-1.81 1.492-.13 2.237-.54 2.237-1.246 0-.64-.479-.957-1.422-.957-.627 0-1.303.03-2.027.097-.496.064-2.46.172-5.892.298l-6.894.25-3.252-.093c-1.759 0-3.423-.073-5.006-.243-1.169-.118-2.005-.183-2.504-.183-1.17 0-1.804.301-1.893.897-.047.473.59.86 1.893 1.18 3.784.942 6.34 2.21 7.668 3.786 1.33 1.58 1.994 4.12 1.994 7.64v33.203c0 5.627-1.24 10.063-3.716 13.302-2.484 3.237-6.064 5.088-10.755 5.544-1.217.129-1.826.492-1.826 1.102 0 .603.495.908 1.487.908.23 0 .59-.015 1.083-.049l2.773-.05 4.532-.096 1.08.064c1.084.042 1.917.068 2.504.068 1.128 0 2.252-.474 3.38-1.419l62.166-50.86c.988-.821 1.618-1.211 1.89-1.18.45.036.695.343.742.932v24.175l.07 6.59-.812 11.233c-.447 2.768-1.558 4.73-3.332 5.888-1.777 1.153-4.978 2.009-9.606 2.562-1.3.161-1.954.55-1.954 1.181 0 .596.653.5 1.954.5.583 0 1.526.096 2.826 0 3.103-.252 7.261 0 12.47 0 2.786 0 5.01-.195 6.671 0 1.439.195 2.538 0 3.306 0 1.167 0 1.797.12 1.884-.562.042-.42-.402-.731-1.345-.924-2.742-.488-4.553-1.301-5.429-2.441-.877-1.137-1.314-3.27-1.314-6.39v-5.266l-.134-3.224" transform="matrix(1.25 0 0 -1.25 115.271 672.839)"/><path style="fill:#231f20;fill-opacity:1;fill-rule:nonzero;stroke:none" d="m218.144 386.625 35.557-62.035c.862-1.556 1.657-2.3 2.397-2.25.615 0 1.72 1.332 3.319 4.008l1.471 2.605 20.26 36.606c8.712 15.72 13.072 25.837 13.072 30.347 0 1.54-.465 2.637-1.38 3.264-.926.642-2.798 1.165-5.608 1.585-3.448.513-5.134 1.164-5.072 1.953.068.882 1.078 1.325 3.054 1.325.43 0 1.322-.024 2.684-.07 4.56-.185 7.304-.281 8.224-.281h3.795l4.161.067h2.316l7.866.096c1.223 0 1.848-.405 1.848-1.213 0-.671-.648-1.164-1.953-1.497-4.446-1.27-7.82-3.986-10.109-8.156l-2.488-4.573-45.846-81.908c-1.281-2.296-2.53-3.44-3.763-3.44-1.275 0-2.593 1.168-3.935 3.52l-46.819 82.6c-2.214 3.795-4.213 6.443-6.001 7.947-1.783 1.494-4.217 2.462-7.296 2.883-3.202.47-5.098.802-5.69 1.013-.581.205-.872.59-.872 1.15 0 .925.86 1.401 2.583 1.401.497 0 1.386.11 2.683 0 1.043-.09 4.152 0 9.326 0h14.95c1.296 0 3.269-.168 5.91 0 1.231.093 2.095 0 2.582 0 1.672 0 2.498-.346 2.498-1.215 0-.637-.62-1.14-1.854-1.507-2.534-.701-4.126-1.301-4.77-1.797-.65-.492-.977-1.347-.977-2.567 0-2.024 1.295-5.314 3.877-9.861" transform="matrix(1.25 0 0 -1.25 115.271 672.839)"/><path style="fill:#231f20;fill-opacity:1;fill-rule:nonzero;stroke:none" d="M337.004 389.26v-36.648c0-4.573.38-7.598 1.15-9.065.9-1.67 2.02-2.845 3.344-3.53 1.336-.687 3.426-1.174 6.269-1.469 2.253-.22 3.385-.618 3.385-1.19 0-.765-.7-1.149-2.104-1.149-.67 0-1.524.061-2.56.179-1.4.154-3.786.227-7.17.227l-9.795.119-7.97-.368c-1.307-.102-2.392-.157-3.25-.157-1.215 0-1.819.336-1.819.993 0 .57.697.927 2.098 1.087 3.43.423 5.642 1.278 6.632 2.57.994 1.29 1.49 4.01 1.49 8.155v41.925c0 4.05-.643 6.773-1.927 8.177-1.279 1.402-4.016 2.347-8.205 2.839-1.4.19-2.12.576-2.164 1.155-.043.699.608 1.055 1.958 1.055.363 0 .767-.02 1.214-.059 3.286-.308 7.657-.464 13.101-.464 3.334 0 6.197.059 8.578.174l4.525.29c.858.039 1.42.06 1.69.06 1.215 0 1.824-.304 1.824-.918 0-.573-.59-1.002-1.767-1.293l-3.517-.982c-3.342-.914-5.01-4.818-5.01-11.713M382.285 336.714c-1.177 0-1.785-.082-1.785.503 0 .515.375.851 1.124 1.012l2.428.52c.879.191 2.063.96 3.554 2.31 1.491 1.34 2.721 2.745 3.688 4.196l1.904 3.135 33.712 54.168c.566.952 1.202 1.424 1.899 1.424.703 0 1.29-.453 1.77-1.373l28.202-52.212 1.444-2.561c2.052-3.833 3.752-6.211 5.11-7.144 1.352-.936 4.101-1.674 8.25-2.211 1.353-.181 2.013-.57 1.966-1.158-.047-.53-.656-.797-1.837-.797-.395 0-1.22.035-2.491.098-2.27.148-6.315.222-12.121.222-6.068 0-9.874-.106-11.403-.307-.92-.13-1.595-.199-2.03-.199-1.14 0-1.707.338-1.707 1.01 0 .51.551.846 1.652 1.01l2.037.33c2.194.313 3.288 1.392 3.288 3.231 0 1.67-1.337 5.015-4.016 10.012l-3.29 6.269-16.138 29.793-.522 1c-.523 1.008-1.096 1.527-1.708 1.56-.305.033-.653-.27-1.046-.897l-12.795-20.53c-.565-.885-.846-1.47-.846-1.75l-6.496-10.136-4.278-6.992c-1.931-3.201-2.898-5.58-2.898-7.128 0-1.497.51-2.57 1.54-3.244 1.026-.66 3.05-1.238 6.069-1.708 1.314-.185 1.987-.552 2.034-1.109.044-.522-.568-.783-1.835-.783-.485 0-1.229.018-2.234.054l-6.296.277a208.45 208.45 0 0 1-7.28.113c-1.274 0-2.257-.027-2.956-.077" transform="matrix(1.25 0 0 -1.25 115.271 672.839)"/><path style="fill:#231f20;fill-opacity:1;fill-rule:nonzero;stroke:none" d="M462.411 337.578c0 .676.665 1.125 1.995 1.348 4.243.689 7.03 2.375 8.356 5.033 1.331 2.657 1.992 7.89 1.992 15.713v49.819l-.154 7.219c0 7.216-2.902 11.24-8.693 12.074l-3.744.485c-1.704.273-2.555.811-2.555 1.624 0 .945.906 1.416 2.71 1.416.43 0 2.287-.087 5.586-.268 1.918-.128 4.282-.193 7.099-.193 2.442 0 6.619.164 12.516.484 4.262.23 8.005.346 11.251.346 12.228 0 21.448-1.999 27.672-5.992 6.216-3.99 9.331-9.934 9.331-17.83 0-10.387-6.571-18.421-19.711-24.1l22.051-28.204 2.551-3.32c6.82-8.664 13.107-13.152 18.862-13.476l2.551-.141c.959-.05 1.413-.378 1.361-.987-.05-.7-1.236-1.34-3.56-1.903-2.318-.554-4.936-.837-7.865-.837-4.794 0-9.095 1.147-12.905 3.43-3.803 2.284-7.679 6.015-11.622 11.19l-19.884 26.324-1.123 1.525c-1.275 1.895-3.065 6.765-5.934 6.765l1.106 1.14c6.984 0 12.479 1.665 16.476 5 4.002 3.33 6.006 7.89 6.006 13.674 0 6.712-2.721 12.225-8.167 16.551-5.44 4.329-12.368 6.489-20.803 6.489-3.144 0-5.315-.444-6.521-1.35-1.196-.904-1.798-2.534-1.798-4.892.414-22.206-.228-45.276.165-67.526 0-3.99.222-6.72.673-8.18.457-1.46 1.537-2.768 3.241-3.923 2.293-1.578 5.842-2.583 10.64-2.993 1.917-.186 2.905-.71 2.959-1.58.105-.904-.773-1.367-2.633-1.367-.744 0-2.316.108-4.702.324-2.18.22-5.562.335-10.133.335l-7.65.08-4.15-.08c-1.814 0-3.986-.117-6.544-.365M4.33 337.245c0 .53.386.877 1.156 1.044l2.502.535c.906.194 2.126.985 3.66 2.375 1.536 1.38 2.798 2.826 3.798 4.32l1.957 3.229 34.708 55.763c.584.98 1.235 1.467 1.952 1.467.721 0 1.331-.466 1.827-1.412l29.03-53.75 1.488-2.64c2.11-3.944 3.864-6.395 5.256-7.356 1.398-.963 4.224-1.719 8.497-2.272 1.393-.188 2.07-.59 2.026-1.196-.05-.545-.68-.816-1.889-.816-.408 0-1.264.034-2.57.096-2.336.153-6.496.23-12.478.23-6.25 0-10.163-.104-11.737-.317-.948-.13-1.643-.2-2.092-.2-1.173 0-1.754.347-1.754 1.035 0 .528.565.874 1.694 1.037l2.101.343c2.256.326 3.39 1.436 3.39 3.326 0 1.722-1.38 5.16-4.14 10.309l-3.39 6.45-16.61 30.677-.538 1.026c-.54 1.04-1.129 1.575-1.76 1.606-.312.036-.67-.277-1.076-.921L36.17 370.095l-7.562-12.232-4.405-7.205c-1.99-3.289-2.984-5.742-2.984-7.338 0-1.54.527-2.644 1.588-3.338 1.056-.678 3.14-1.27 6.247-1.76 1.351-.185 2.047-.563 2.094-1.137.046-.54-.584-.807-1.891-.807-.5 0-1.264.018-2.297.057l-6.486.28c-2.163.08-4.662.119-7.494.119-1.314 0-2.324-.027-3.043-.08M-60.795 363.782c0-20.796 0-28.756-4.117-37.87-2.881-6.42-8.918-12.454-20.032-19.638-1.785-1.16-3.978-2.57-5.352-3.211-.273-.129-.548-.258-.958-.258-.413 0-.963.258-.963.769 0 .773.686 1.158 1.92 1.926 1.648.902 3.568 2.44 4.803 3.596 8.918 8.469 13.172 15.276 13.172 48.396v37.103c0 20.025 0 23.62-.274 27.726-.273 4.366-1.371 6.419-5.9 7.318-1.098.258-3.43.385-4.664.385-.548 0-1.098.257-1.098.772 0 .77.685 1.026 2.196 1.026 6.173 0 14.818-.384 15.505-.384.687 0 9.33.384 13.446.384 1.51 0 2.196-.256 2.196-1.026 0-.515-.547-.772-1.098-.772-.961 0-1.785-.127-3.43-.385-3.705-.641-4.802-2.821-5.078-7.318-.274-4.106-.274-7.701-.274-27.726v-30.813" transform="matrix(1.25 0 0 -1.25 115.271 672.839)"/><path style="fill:#6478c8;fill-opacity:1;fill-rule:evenodd;stroke:none" d="M386.479 515.49c-13.06-17.908-20.783-49.464-11.591-63.37 15.318-23.165 74.161-10.67 127.896 30.682 0 0-13.488-23.234-91.752-50.023-73.768-25.25-66.9 39.198-24.553 82.71" transform="matrix(1.25 0 0 -1.25 115.271 672.839)"/><path style="fill:#231f20;fill-opacity:1;fill-rule:evenodd;stroke:none" d="m525.823 508.068 18.055-3.462-18.053-3.469-2.796-22.41-2.792 22.41-18.054 3.47 18.054 3.461 2.792 22.406 2.794-22.406M541.275 529.539l7.04-1.356-7.04-1.357-1.082-8.728-1.092 8.728-7.037 1.357 7.037 1.356 1.092 8.732 1.082-8.732M506.527 487.14l5.173-.996-5.173-.994-.798-6.416-.797 6.416-5.176.994 5.176.995.797 6.418.798-6.418M560.292 516.538l11.097-2.13-11.097-2.132-1.716-13.77-1.72 13.77-11.095 2.132 11.095 2.13 1.72 13.774 1.716-13.774" transform="matrix(1.25 0 0 -1.25 115.271 672.839)"/><path style="fill:#231f20;fill-opacity:1;fill-rule:nonzero;stroke:none;stroke-width:1" d="M298.897 462.974c-53.127-.291-113.68-32.299-157.542-64.725 82.584 48.753 131.478 74.28 192.15 48.916 60.675-25.363 13.43-110.481 13.43-110.481h1.637c14.373 22.204 31.31 53.686 18.735 88.094 0 0 26.567-2.13 4.794-91.338l12.607 3.244c-5.086 7.986-1.469 14.99-1.469 14.99 13.924 71.62-7.956 100.96-65.15 109.914-6.256.98-12.668 1.422-19.192 1.386z" transform="matrix(1.25 0 0 -1.25 115.271 672.839)"/><path style="fill:#231f20;fill-opacity:1;fill-rule:evenodd;stroke:none" d="M406.803 463.358c0-7.996-6.481-14.477-14.475-14.477-7.996 0-14.476 6.481-14.476 14.477 0 7.992 6.48 14.473 14.476 14.473 7.994 0 14.475-6.481 14.475-14.473" transform="matrix(1.25 0 0 -1.25 115.271 672.839)"/><path style="fill:#231f20;fill-opacity:1;fill-rule:nonzero;stroke:none" d="M227.998 396.827c0-2.402.041-3.381.369-3.67.284-.268.978-.385 2.385-.385.94 0 1.737.02 2.164.5.224.25.367.596.428.924.02.114.083.21.184.21.083 0 .122-.076.122-.249 0-.174-.122-1.154-.265-1.634-.122-.384-.183-.442-1.142-.442-1.285 0-2.285.02-3.123.058-.816.019-1.428.038-1.958.038-.083 0-.389 0-.734-.019-.368-.02-.755-.04-1.04-.04-.186 0-.288.04-.288.135 0 .059.041.135.143.135.163 0 .389.039.551.078.348.076.388.383.47.866.101.67.101 1.958.101 3.534v2.882c0 2.538 0 2.999-.04 3.518-.04.557-.143.826-.734.903-.144.018-.45.038-.613.038-.06 0-.143.077-.143.135 0 .096.083.133.287.133.816 0 1.938-.036 2.04-.036.082 0 1.43.036 1.979.036.183 0 .287-.037.287-.133 0-.058-.083-.116-.143-.116-.124 0-.388-.019-.593-.04-.53-.094-.632-.344-.673-.92-.02-.52-.02-.98-.02-3.518v-2.92" transform="matrix(1.25 0 0 -1.25 115.271 672.839)"/><path style="fill:none;stroke:#231f20;stroke-width:.44999999;stroke-linecap:butt;stroke-linejoin:miter;stroke-miterlimit:4;stroke-dasharray:none;stroke-opacity:1" d="M227.998 396.827c0-2.402.041-3.381.369-3.67.284-.268.978-.385 2.385-.385.94 0 1.737.02 2.164.5.224.25.367.596.428.924.02.114.083.21.184.21.083 0 .122-.076.122-.249 0-.174-.122-1.154-.265-1.634-.122-.384-.183-.442-1.142-.442-1.285 0-2.285.02-3.123.058-.816.019-1.428.038-1.958.038-.083 0-.389 0-.734-.019-.368-.02-.755-.04-1.04-.04-.186 0-.288.04-.288.135 0 .059.041.135.143.135.163 0 .389.039.551.078.348.076.388.383.47.866.101.67.101 1.958.101 3.534v2.882c0 2.538 0 2.999-.04 3.518-.04.557-.143.826-.734.903-.144.018-.45.038-.613.038-.06 0-.143.077-.143.135 0 .096.083.133.287.133.816 0 1.938-.036 2.04-.036.082 0 1.43.036 1.979.036.183 0 .287-.037.287-.133 0-.058-.083-.116-.143-.116-.124 0-.388-.019-.593-.04-.53-.094-.632-.344-.673-.92-.02-.52-.02-.98-.02-3.518z" transform="matrix(1.25 0 0 -1.25 115.271 672.839)"/><path style="fill:#231f20;fill-opacity:1;fill-rule:nonzero;stroke:none" d="M238.65 396.366c0 .884-.123 1.211-.388 1.673-.142.25-2.57 3.881-3.182 4.745-.429.616-.858.98-1.185 1.193-.264.155-.613.23-.755.23-.102 0-.182.077-.182.153 0 .078.06.115.223.115.347 0 1.693-.036 1.776-.036.123 0 .857.036 1.55.036.205 0 .245-.037.245-.115 0-.057-.122-.114-.285-.173-.143-.055-.225-.135-.225-.269 0-.23.123-.422.245-.632l3.265-5.094c.368.692 2.612 4.189 2.94 4.726.224.368.303.636.303.846 0 .232-.08.368-.283.423-.165.04-.267.116-.267.193 0 .058.102.095.287.095.47 0 1.1-.036 1.243-.036.124 0 1.409.036 1.757.036.121 0 .223-.036.223-.095 0-.077-.081-.173-.223-.173-.204 0-.552-.057-.838-.211-.346-.193-.51-.366-.897-.808-.592-.652-3.123-4.496-3.49-5.188-.306-.578-.224-1.096-.224-1.634v-1.404c0-.267 0-.96.061-1.63.04-.483.163-.79.695-.866.242-.04.651-.078.815-.078a.134.134 0 0 0 .142-.135c0-.076-.102-.135-.284-.135-1 0-2.165.06-2.266.06-.081 0-1.225-.06-1.754-.06-.205 0-.287.04-.287.135 0 .059.041.135.143.135.163 0 .367.039.532.078.367.076.488.383.529.866.042.67.042 1.363.042 1.63v1.404" transform="matrix(1.25 0 0 -1.25 115.271 672.839)"/><path style="fill:none;stroke:#231f20;stroke-width:.44999999;stroke-linecap:butt;stroke-linejoin:miter;stroke-miterlimit:4;stroke-dasharray:none;stroke-opacity:1" d="M238.65 396.366c0 .884-.123 1.211-.388 1.673-.142.25-2.57 3.881-3.182 4.745-.429.616-.858.98-1.185 1.193-.264.155-.613.23-.755.23-.102 0-.182.077-.182.153 0 .078.06.115.223.115.347 0 1.693-.036 1.776-.036.123 0 .857.036 1.55.036.205 0 .245-.037.245-.115 0-.057-.122-.114-.285-.173-.143-.055-.225-.135-.225-.269 0-.23.123-.422.245-.632l3.265-5.094c.368.692 2.612 4.189 2.94 4.726.224.368.303.636.303.846 0 .232-.08.368-.283.423-.165.04-.267.116-.267.193 0 .058.102.095.287.095.47 0 1.1-.036 1.243-.036.124 0 1.409.036 1.757.036.121 0 .223-.036.223-.095 0-.077-.081-.173-.223-.173-.204 0-.552-.057-.838-.211-.346-.193-.51-.366-.897-.808-.592-.652-3.123-4.496-3.49-5.188-.306-.578-.224-1.096-.224-1.634v-1.404c0-.267 0-.96.061-1.63.04-.483.163-.79.695-.866.242-.04.651-.078.815-.078a.134.134 0 0 0 .142-.135c0-.076-.102-.135-.284-.135-1 0-2.165.06-2.266.06-.081 0-1.225-.06-1.754-.06-.205 0-.287.04-.287.135 0 .059.041.135.143.135.163 0 .367.039.532.078.367.076.488.383.529.866.042.67.042 1.363.042 1.63z" transform="matrix(1.25 0 0 -1.25 115.271 672.839)"/><path style="fill:#231f20;fill-opacity:1;fill-rule:nonzero;stroke:none" d="M248.322 393.657c-1.755 1.422-2.182 3.285-2.182 4.842 0 1.097.427 2.999 2.02 4.459 1.082.98 2.714 1.75 5.468 1.75.714 0 1.734-.06 2.611-.194.675-.115 1.246-.23 1.836-.25.186 0 .226-.077.226-.172 0-.134-.04-.328-.08-.923-.021-.537-.021-1.44-.043-1.671-.02-.251-.103-.346-.204-.346-.122 0-.141.115-.141.346 0 .634-.288 1.286-.756 1.633-.633.499-1.937.902-3.53.902-2.306 0-3.409-.575-4.04-1.134-1.327-1.152-1.613-2.612-1.613-4.265 0-3.133 2.633-5.92 6.468-5.92 1.348 0 2.246.097 2.96.77.386.365.632 1.056.693 1.364.042.173.06.23.185.23.08 0 .163-.116.163-.23 0-.115-.246-1.537-.43-2.094-.1-.308-.141-.366-.448-.48-.733-.27-2.081-.366-3.244-.366-2.695 0-4.51.597-5.92 1.749" transform="matrix(1.25 0 0 -1.25 115.271 672.839)"/><path style="fill:none;stroke:#231f20;stroke-width:.44999999;stroke-linecap:butt;stroke-linejoin:miter;stroke-miterlimit:4;stroke-dasharray:none;stroke-opacity:1" d="M248.322 393.657c-1.755 1.422-2.182 3.285-2.182 4.842 0 1.097.427 2.999 2.02 4.459 1.082.98 2.714 1.75 5.468 1.75.714 0 1.734-.06 2.611-.194.675-.115 1.246-.23 1.836-.25.186 0 .226-.077.226-.172 0-.134-.04-.328-.08-.923-.021-.537-.021-1.44-.043-1.671-.02-.251-.103-.346-.204-.346-.122 0-.141.115-.141.346 0 .634-.288 1.286-.756 1.633-.633.499-1.937.902-3.53.902-2.306 0-3.409-.575-4.04-1.134-1.327-1.152-1.613-2.612-1.613-4.265 0-3.133 2.633-5.92 6.468-5.92 1.348 0 2.246.097 2.96.77.386.365.632 1.056.693 1.364.042.173.06.23.185.23.08 0 .163-.116.163-.23 0-.115-.246-1.537-.43-2.094-.1-.308-.141-.366-.448-.48-.733-.27-2.081-.366-3.244-.366-2.695 0-4.51.597-5.92 1.749z" transform="matrix(1.25 0 0 -1.25 115.271 672.839)"/><path style="fill:#231f20;fill-opacity:1;fill-rule:nonzero;stroke:none" d="M268.197 407.051c.102-.173 0-.23-.079-.23-.062 0-.266.038-.613 0-1-.096-2.429-.539-3.102-.808a1.308 1.308 0 0 0-.306-.096c-.041 0-.102.039-.102.115 0 .058.04.096.143.154.734.481 2.631 1.556 2.775 1.634.346.191.468.25.57.25.063 0 .103-.038.204-.174.144-.192.287-.46.51-.845zm-5.569-7.303c0 2.538 0 2.999-.042 3.518-.04.557-.143.826-.733.903a6.514 6.514 0 0 1-.612.038c-.061 0-.143.077-.143.135 0 .096.082.133.284.133.816 0 1.98-.037 2.082-.037.123 0 3.878-.02 4.286 0 .345.019.673.076.816.097.081.018.163.075.244.075.06 0 .082-.075.082-.153 0-.115-.1-.307-.142-.768-.021-.155-.062-.885-.103-1.078-.02-.075-.081-.171-.163-.171-.102 0-.143.076-.143.21 0 .115-.02.385-.103.577-.12.269-.306.383-1.284.499-.306.038-2.39.059-2.592.059-.082 0-.102-.059-.102-.175v-4.437c0-.116 0-.174.102-.174.224 0 2.592 0 3 .039.427.037.694.057.876.23.124.115.205.212.266.212.062 0 .102-.038.102-.135 0-.096-.102-.365-.144-.903-.04-.327-.08-.943-.08-1.058 0-.134-.04-.307-.163-.307-.082 0-.124.059-.124.155 0 .152 0 .326-.08.537-.061.23-.226.423-.918.5-.49.057-2.409.076-2.715.076-.102 0-.122-.056-.122-.115v-1.364c0-.557-.02-2.46 0-2.787.04-1.094.367-1.307 2.142-1.307.47 0 1.326 0 1.795.174.47.192.714.48.817 1.133.042.192.08.251.184.251.102 0 .122-.134.122-.25 0-.116-.142-1.23-.244-1.575-.123-.424-.308-.424-1.001-.424-1.345 0-2.387.037-3.121.058-.755.038-1.224.038-1.49.038-.04 0-.387 0-.776-.019-.347-.02-.755-.04-1.04-.04-.184 0-.286.04-.286.135 0 .059.042.135.143.135.163 0 .387.058.55.078.349.057.388.383.47.866.103.67.103 1.958.103 3.534v2.882" transform="matrix(1.25 0 0 -1.25 115.271 672.839)"/><path style="fill:none;stroke:#231f20;stroke-width:.44999999;stroke-linecap:butt;stroke-linejoin:miter;stroke-miterlimit:4;stroke-dasharray:none;stroke-opacity:1" d="M268.197 407.051c.102-.173 0-.23-.079-.23-.062 0-.266.038-.613 0-1-.096-2.429-.539-3.102-.808a1.308 1.308 0 0 0-.306-.096c-.041 0-.102.039-.102.115 0 .058.04.096.143.154.734.481 2.631 1.556 2.775 1.634.346.191.468.25.57.25.063 0 .103-.038.204-.174.144-.192.287-.46.51-.845zm-5.569-7.303c0 2.538 0 2.999-.042 3.518-.04.557-.143.826-.733.903a6.514 6.514 0 0 1-.612.038c-.061 0-.143.077-.143.135 0 .096.082.133.284.133.816 0 1.98-.037 2.082-.037.123 0 3.878-.02 4.286 0 .345.019.673.076.816.097.081.018.163.075.244.075.06 0 .082-.075.082-.153 0-.115-.1-.307-.142-.768-.021-.155-.062-.885-.103-1.078-.02-.075-.081-.171-.163-.171-.102 0-.143.076-.143.21 0 .115-.02.385-.103.577-.12.269-.306.383-1.284.499-.306.038-2.39.059-2.592.059-.082 0-.102-.059-.102-.175v-4.437c0-.116 0-.174.102-.174.224 0 2.592 0 3 .039.427.037.694.057.876.23.124.115.205.212.266.212.062 0 .102-.038.102-.135 0-.096-.102-.365-.144-.903-.04-.327-.08-.943-.08-1.058 0-.134-.04-.307-.163-.307-.082 0-.124.059-.124.155 0 .152 0 .326-.08.537-.061.23-.226.423-.918.5-.49.057-2.409.076-2.715.076-.102 0-.122-.056-.122-.115v-1.364c0-.557-.02-2.46 0-2.787.04-1.094.367-1.307 2.142-1.307.47 0 1.326 0 1.795.174.47.192.714.48.817 1.133.042.192.08.251.184.251.102 0 .122-.134.122-.25 0-.116-.142-1.23-.244-1.575-.123-.424-.308-.424-1.001-.424-1.345 0-2.387.037-3.121.058-.755.038-1.224.038-1.49.038-.04 0-.387 0-.776-.019-.347-.02-.755-.04-1.04-.04-.184 0-.286.04-.286.135 0 .059.042.135.143.135.163 0 .387.058.55.078.349.057.388.383.47.866.103.67.103 1.958.103 3.534z" transform="matrix(1.25 0 0 -1.25 115.271 672.839)"/><path style="fill:#231f20;fill-opacity:1;fill-rule:nonzero;stroke:none" d="M273.872 399.748c0 2.538 0 2.999-.042 3.518-.04.557-.143.826-.734.903a6.488 6.488 0 0 1-.612.038c-.062 0-.143.077-.143.135 0 .096.081.133.284.133.817 0 1.98-.037 2.083-.037.123 0 3.876-.02 4.284 0 .347.019.675.076.818.097.081.018.163.075.243.075.063 0 .082-.075.082-.153 0-.115-.101-.307-.143-.768-.02-.155-.06-.885-.1-1.078-.021-.075-.082-.171-.164-.171-.103 0-.143.076-.143.21 0 .115-.021.385-.103.577-.121.269-.306.383-1.284.499-.307.038-2.39.059-2.593.059-.082 0-.101-.059-.101-.175v-4.437c0-.116 0-.174.1-.174.226 0 2.594 0 3 .039.43.037.694.057.878.23.122.115.204.212.265.212.063 0 .102-.038.102-.135 0-.096-.102-.365-.141-.903-.041-.327-.083-.943-.083-1.058 0-.134-.04-.307-.163-.307-.082 0-.123.059-.123.155 0 .152 0 .326-.081.537-.062.23-.225.423-.918.5-.49.057-2.409.076-2.715.076-.102 0-.121-.056-.121-.115v-1.364c0-.557-.022-2.46 0-2.787.04-1.094.367-1.307 2.14-1.307.471 0 1.328 0 1.797.174.47.192.715.48.817 1.133.04.192.083.251.184.251.102 0 .122-.134.122-.25 0-.116-.144-1.23-.246-1.575-.122-.424-.306-.424-.998-.424-1.348 0-2.388.037-3.124.058-.754.038-1.224.038-1.488.038-.042 0-.388 0-.776-.019-.347-.02-.755-.04-1.042-.04-.182 0-.285.04-.285.135 0 .059.043.135.144.135.163 0 .387.058.55.078.347.057.388.383.471.866.102.67.102 1.958.102 3.534v2.882" transform="matrix(1.25 0 0 -1.25 115.271 672.839)"/><path style="fill:none;stroke:#231f20;stroke-width:.44999999;stroke-linecap:butt;stroke-linejoin:miter;stroke-miterlimit:4;stroke-dasharray:none;stroke-opacity:1" d="M273.872 399.748c0 2.538 0 2.999-.042 3.518-.04.557-.143.826-.734.903a6.488 6.488 0 0 1-.612.038c-.062 0-.143.077-.143.135 0 .096.081.133.284.133.817 0 1.98-.037 2.083-.037.123 0 3.876-.02 4.284 0 .347.019.675.076.818.097.081.018.163.075.243.075.063 0 .082-.075.082-.153 0-.115-.101-.307-.143-.768-.02-.155-.06-.885-.1-1.078-.021-.075-.082-.171-.164-.171-.103 0-.143.076-.143.21 0 .115-.021.385-.103.577-.121.269-.306.383-1.284.499-.307.038-2.39.059-2.593.059-.082 0-.101-.059-.101-.175v-4.437c0-.116 0-.174.1-.174.226 0 2.594 0 3 .039.43.037.694.057.878.23.122.115.204.212.265.212.063 0 .102-.038.102-.135 0-.096-.102-.365-.141-.903-.041-.327-.083-.943-.083-1.058 0-.134-.04-.307-.163-.307-.082 0-.123.059-.123.155 0 .152 0 .326-.081.537-.062.23-.225.423-.918.5-.49.057-2.409.076-2.715.076-.102 0-.121-.056-.121-.115v-1.364c0-.557-.022-2.46 0-2.787.04-1.094.367-1.307 2.14-1.307.471 0 1.328 0 1.797.174.47.192.715.48.817 1.133.04.192.083.251.184.251.102 0 .122-.134.122-.25 0-.116-.144-1.23-.246-1.575-.122-.424-.306-.424-.998-.424-1.348 0-2.388.037-3.124.058-.754.038-1.224.038-1.488.038-.042 0-.388 0-.776-.019-.347-.02-.755-.04-1.042-.04-.182 0-.285.04-.285.135 0 .059.043.135.144.135.163 0 .387.058.55.078.347.057.388.383.471.866.102.67.102 1.958.102 3.534z" transform="matrix(1.25 0 0 -1.25 115.271 672.839)"/></svg>
